<svg width="155" height="21" viewBox="0 0 155 21" fill="none" xmlns="http://www.w3.org/2000/svg">
<path d="M0.425 20V2.5H6.325V15.425H14.225V20H0.425ZM17.1047 20V2.5H25.5297C27.163 2.5 28.5714 2.76667 29.7547 3.3C30.9547 3.83333 31.8797 4.6 32.5297 5.6C33.1797 6.58333 33.5047 7.75 33.5047 9.1C33.5047 10.45 33.1797 11.6167 32.5297 12.6C31.8797 13.5833 30.9547 14.35 29.7547 14.9C28.5714 15.4333 27.163 15.7 25.5297 15.7H20.3797L23.0047 13.175V20H17.1047ZM23.0047 13.825L20.3797 11.15H25.1547C25.9714 11.15 26.5714 10.9667 26.9547 10.6C27.3547 10.2333 27.5547 9.73333 27.5547 9.1C27.5547 8.46667 27.3547 7.96667 26.9547 7.6C26.5714 7.23333 25.9714 7.05 25.1547 7.05H20.3797L23.0047 4.375V13.825ZM46.0088 20.4C44.5921 20.4 43.2838 20.1833 42.0838 19.75C40.9005 19.3 39.8671 18.6667 38.9838 17.85C38.1171 17.0333 37.4421 16.0667 36.9588 14.95C36.4755 13.8333 36.2338 12.6 36.2338 11.25C36.2338 9.9 36.4755 8.66667 36.9588 7.55C37.4421 6.43333 38.1255 5.46667 39.0088 4.65C39.8921 3.83333 40.9338 3.20833 42.1338 2.775C43.3505 2.325 44.6838 2.1 46.1338 2.1C47.8671 2.1 49.4088 2.39167 50.7588 2.975C52.1255 3.55833 53.2505 4.39167 54.1338 5.475L50.3588 8.8C49.8088 8.16667 49.2088 7.69167 48.5588 7.375C47.9255 7.04167 47.2171 6.875 46.4338 6.875C45.7838 6.875 45.1921 6.975 44.6588 7.175C44.1421 7.375 43.7005 7.66667 43.3338 8.05C42.9671 8.43333 42.6838 8.89167 42.4838 9.425C42.2838 9.95833 42.1838 10.5667 42.1838 11.25C42.1838 11.9 42.2838 12.5 42.4838 13.05C42.6838 13.5833 42.9671 14.0417 43.3338 14.425C43.7005 14.8083 44.1338 15.1083 44.6338 15.325C45.1505 15.525 45.7255 15.625 46.3588 15.625C47.0255 15.625 47.6755 15.5167 48.3088 15.3C48.9421 15.0667 49.6171 14.675 50.3338 14.125L53.6338 18.175C52.5671 18.8917 51.3505 19.4417 49.9838 19.825C48.6171 20.2083 47.2921 20.4 46.0088 20.4ZM48.5088 17.425V10.775H53.6338V18.175L48.5088 17.425Z" fill="#FF3D00"/>
<path d="M61.2977 10.55H70.0227V13.3H61.2977V10.55ZM61.5727 20H58.3227V2.5H71.0977V5.225H61.5727V20ZM75.1906 20V6.65H78.3156V20H75.1906ZM76.7656 4.45C76.1823 4.45 75.699 4.26667 75.3156 3.9C74.949 3.53333 74.7656 3.09167 74.7656 2.575C74.7656 2.04167 74.949 1.6 75.3156 1.25C75.699 0.883333 76.1823 0.7 76.7656 0.7C77.349 0.7 77.824 0.874999 78.1906 1.225C78.574 1.55833 78.7656 1.98333 78.7656 2.5C78.7656 3.05 78.5823 3.51667 78.2156 3.9C77.849 4.26667 77.3656 4.45 76.7656 4.45ZM88.6922 20.175C87.2255 20.175 86.0922 19.8 85.2922 19.05C84.4922 18.2833 84.0922 17.1583 84.0922 15.675V3.7H87.2172V15.6C87.2172 16.2333 87.3755 16.725 87.6922 17.075C88.0255 17.425 88.4839 17.6 89.0672 17.6C89.7672 17.6 90.3505 17.4167 90.8172 17.05L91.6922 19.275C91.3255 19.575 90.8755 19.8 90.3422 19.95C89.8089 20.1 89.2589 20.175 88.6922 20.175ZM81.8922 9.25V6.75H90.7922V9.25H81.8922ZM103.088 6.5C104.155 6.5 105.105 6.70833 105.938 7.125C106.788 7.54167 107.455 8.18333 107.938 9.05C108.421 9.9 108.663 11 108.663 12.35V20H105.538V12.75C105.538 11.5667 105.255 10.6833 104.688 10.1C104.138 9.51667 103.363 9.225 102.363 9.225C101.63 9.225 100.98 9.375 100.413 9.675C99.8462 9.975 99.4046 10.425 99.0879 11.025C98.7879 11.6083 98.6379 12.35 98.6379 13.25V20H95.5129V6.65H98.4879V10.25L97.9629 9.15C98.4296 8.3 99.1046 7.65 99.9879 7.2C100.888 6.73333 101.921 6.5 103.088 6.5ZM120.177 20.175C118.693 20.175 117.393 19.8833 116.277 19.3C115.177 18.7 114.318 17.8833 113.702 16.85C113.102 15.8167 112.802 14.6417 112.802 13.325C112.802 11.9917 113.093 10.8167 113.677 9.8C114.277 8.76667 115.093 7.95833 116.127 7.375C117.177 6.79167 118.368 6.5 119.702 6.5C121.002 6.5 122.16 6.78333 123.177 7.35C124.193 7.91667 124.993 8.71667 125.577 9.75C126.16 10.7833 126.452 12 126.452 13.4C126.452 13.5333 126.443 13.6833 126.427 13.85C126.427 14.0167 126.418 14.175 126.402 14.325H115.277V12.25H124.752L123.527 12.9C123.543 12.1333 123.385 11.4583 123.052 10.875C122.718 10.2917 122.26 9.83333 121.677 9.5C121.11 9.16667 120.452 9 119.702 9C118.935 9 118.26 9.16667 117.677 9.5C117.11 9.83333 116.66 10.3 116.327 10.9C116.01 11.4833 115.852 12.175 115.852 12.975V13.475C115.852 14.275 116.035 14.9833 116.402 15.6C116.768 16.2167 117.285 16.6917 117.952 17.025C118.618 17.3583 119.385 17.525 120.252 17.525C121.002 17.525 121.677 17.4083 122.277 17.175C122.877 16.9417 123.41 16.575 123.877 16.075L125.552 18C124.952 18.7 124.193 19.2417 123.277 19.625C122.377 19.9917 121.343 20.175 120.177 20.175ZM134.828 20.175C133.712 20.175 132.637 20.0333 131.603 19.75C130.587 19.45 129.778 19.0917 129.178 18.675L130.378 16.3C130.978 16.6833 131.695 17 132.528 17.25C133.362 17.5 134.195 17.625 135.028 17.625C136.012 17.625 136.72 17.4917 137.153 17.225C137.603 16.9583 137.828 16.6 137.828 16.15C137.828 15.7833 137.678 15.5083 137.378 15.325C137.078 15.125 136.687 14.975 136.203 14.875C135.72 14.775 135.178 14.6833 134.578 14.6C133.995 14.5167 133.403 14.4083 132.803 14.275C132.22 14.125 131.687 13.9167 131.203 13.65C130.72 13.3667 130.328 12.9917 130.028 12.525C129.728 12.0583 129.578 11.4417 129.578 10.675C129.578 9.825 129.82 9.09167 130.303 8.475C130.787 7.84167 131.462 7.35833 132.328 7.025C133.212 6.675 134.253 6.5 135.453 6.5C136.353 6.5 137.262 6.6 138.178 6.8C139.095 7 139.853 7.28333 140.453 7.65L139.253 10.025C138.62 9.64167 137.978 9.38333 137.328 9.25C136.695 9.1 136.062 9.025 135.428 9.025C134.478 9.025 133.77 9.16667 133.303 9.45C132.853 9.73333 132.628 10.0917 132.628 10.525C132.628 10.925 132.778 11.225 133.078 11.425C133.378 11.625 133.77 11.7833 134.253 11.9C134.737 12.0167 135.27 12.1167 135.853 12.2C136.453 12.2667 137.045 12.375 137.628 12.525C138.212 12.675 138.745 12.8833 139.228 13.15C139.728 13.4 140.128 13.7583 140.428 14.225C140.728 14.6917 140.878 15.3 140.878 16.05C140.878 16.8833 140.628 17.6083 140.128 18.225C139.645 18.8417 138.953 19.325 138.053 19.675C137.153 20.0083 136.078 20.175 134.828 20.175ZM148.945 20.175C147.828 20.175 146.753 20.0333 145.72 19.75C144.703 19.45 143.895 19.0917 143.295 18.675L144.495 16.3C145.095 16.6833 145.811 17 146.645 17.25C147.478 17.5 148.311 17.625 149.145 17.625C150.128 17.625 150.836 17.4917 151.27 17.225C151.72 16.9583 151.945 16.6 151.945 16.15C151.945 15.7833 151.795 15.5083 151.495 15.325C151.195 15.125 150.803 14.975 150.32 14.875C149.836 14.775 149.295 14.6833 148.695 14.6C148.111 14.5167 147.52 14.4083 146.92 14.275C146.336 14.125 145.803 13.9167 145.32 13.65C144.836 13.3667 144.445 12.9917 144.145 12.525C143.845 12.0583 143.695 11.4417 143.695 10.675C143.695 9.825 143.936 9.09167 144.42 8.475C144.903 7.84167 145.578 7.35833 146.445 7.025C147.328 6.675 148.37 6.5 149.57 6.5C150.47 6.5 151.378 6.6 152.295 6.8C153.211 7 153.97 7.28333 154.57 7.65L153.37 10.025C152.736 9.64167 152.095 9.38333 151.445 9.25C150.811 9.1 150.178 9.025 149.545 9.025C148.595 9.025 147.886 9.16667 147.42 9.45C146.97 9.73333 146.745 10.0917 146.745 10.525C146.745 10.925 146.895 11.225 147.195 11.425C147.495 11.625 147.886 11.7833 148.37 11.9C148.853 12.0167 149.386 12.1167 149.97 12.2C150.57 12.2667 151.161 12.375 151.745 12.525C152.328 12.675 152.861 12.8833 153.345 13.15C153.845 13.4 154.245 13.7583 154.545 14.225C154.845 14.6917 154.995 15.3 154.995 16.05C154.995 16.8833 154.745 17.6083 154.245 18.225C153.761 18.8417 153.07 19.325 152.17 19.675C151.27 20.0083 150.195 20.175 148.945 20.175Z" fill="white"/>
</svg>
